<svg xmlns="http://www.w3.org/2000/svg" viewBox="0 0 46 24"><defs><style>.cls-1{fill:#607d8b;}</style></defs><g id="Layer_2" data-name="Layer 2"><g id="Layer_2-2" data-name="Layer 2"><path class="cls-1" d="M46,12.36a1.75,1.75,0,0,0-1.73-1.47l-.3,0L30.43,13.24a11,11,0,0,0-6-6.41A15.31,15.31,0,0,0,24.57,5c0-2.53-.72-5-1.26-5s-1.25,2.36-1.25,5a14.83,14.83,0,0,0,.11,1.79c-2.18.73-5,3.42-6.12,6.52l-14-2.41-.3,0a1.77,1.77,0,0,0-.3,3.51l4.75.82v1.32a1.59,1.59,0,1,0,1.17,0v-1.1l3.76.65v.7a1.6,1.6,0,1,0,1.17,0v-.49l3.26.56A7.52,7.52,0,0,0,23.24,24a7.51,7.51,0,0,0,7.66-7.25l2.79-.48v.49a1.59,1.59,0,1,0,1.17,0v-.7l3.76-.65v1.1a1.6,1.6,0,0,0,.57,3.1,1.6,1.6,0,0,0,.61-3.08V15.22l4.74-.82A1.76,1.76,0,0,0,46,12.36ZM26.05,16.72H20.18a1.3,1.3,0,0,1,0-2.6h5.87a1.3,1.3,0,0,1,0,2.6Z"/></g></g></svg>