<svg xmlns="http://www.w3.org/2000/svg" viewBox="0 0 18 24"><defs><style>.cls-1{fill:#607d8b;}</style></defs><g id="Layer_2" data-name="Layer 2"><g id="Layer_2-2" data-name="Layer 2"><path class="cls-1" d="M14.21,18.43l-.05-.1s0,0,0,0,0,0,0-.05a5.24,5.24,0,0,0,1.46-.78A2.49,2.49,0,0,0,16.58,16l0-.17a1.67,1.67,0,0,1,.08-.32V2.79a2,2,0,0,0-.28-1A3.52,3.52,0,0,0,15.7.93a4.55,4.55,0,0,0-1-.66,2.21,2.21,0,0,0-1-.27H4.3a2.42,2.42,0,0,0-1,.24,4.12,4.12,0,0,0-1,.64,3.52,3.52,0,0,0-.71.88,2,2,0,0,0-.27.93v13a1.72,1.72,0,0,0,.15.69,3.32,3.32,0,0,0,.4.66,5.12,5.12,0,0,0,.56.58,2.73,2.73,0,0,0,.6.42l.48.17c.22.08.33.14.33.17L0,24H2.28l2.83-4h7.78l2.83,4H18ZM6.78,1.12A.48.48,0,0,1,6.9.83.38.38,0,0,1,7.18.68h3.64a.68.68,0,0,1,.2.1c.1.07.15.13.15.2V2.35a.3.3,0,0,1-.12.24.38.38,0,0,1-.23.1H7.18A.48.48,0,0,1,7,2.59a.28.28,0,0,1-.15-.15.26.26,0,0,1-.1-.19ZM3.13,4.84a1.67,1.67,0,0,1,.11-.54c.1-.16.22-.32.35-.49A1.27,1.27,0,0,1,4,3.47a1.22,1.22,0,0,1,.58-.15h8.8a1.19,1.19,0,0,1,.5.15,2.82,2.82,0,0,1,.46.29.89.89,0,0,1,.3.39.81.81,0,0,1,.15.49V7.53a.79.79,0,0,1-.15.46,2.79,2.79,0,0,1-.35.42,1.89,1.89,0,0,1-.51.29,1.06,1.06,0,0,1-.5.1H4.65l-.15,0a.26.26,0,0,1-.15-.07,1.25,1.25,0,0,1-.86-.46,1.37,1.37,0,0,1-.36-.91ZM5.74,16.13a1.48,1.48,0,0,1-1.09.44,1.38,1.38,0,0,1-1.06-.44,1.52,1.52,0,0,1-.4-1.08,1.33,1.33,0,0,1,.43-1,1.44,1.44,0,0,1,1-.41A1.57,1.57,0,0,1,5.74,14a1.3,1.3,0,0,1,.43,1A1.46,1.46,0,0,1,5.74,16.13Zm6.47,0a1.46,1.46,0,0,1-.43-1.08,1.26,1.26,0,0,1,.46-1,1.56,1.56,0,0,1,1.06-.39,1.43,1.43,0,0,1,1.06.41,1.38,1.38,0,0,1,.4,1,1.52,1.52,0,0,1-.4,1.08,1.38,1.38,0,0,1-1.06.44A1.48,1.48,0,0,1,12.21,16.13Z"/></g></g></svg>