<svg xmlns="http://www.w3.org/2000/svg" viewBox="0 0 32 24"><defs><style>.cls-1{fill:#607d8b;}.cls-2{fill:#fff;}</style></defs><g id="Layer_2" data-name="Layer 2"><g id="Layer_1-2" data-name="Layer 1"><path class="cls-1" d="M8.92,21.73v.78A1.49,1.49,0,0,1,7.42,24a1.48,1.48,0,0,1-1.55-1.42c0-1.43,0-2.85,0-4.27,0-.56,0-1.13.07-1.68a7.37,7.37,0,0,1,.64-2.16c0-.09.07-.19.11-.29a5.33,5.33,0,0,1-.71,0,1.15,1.15,0,0,1-1-1.26,1.21,1.21,0,0,1,1.23-1H7.44a.22.22,0,0,0,.26-.17l.88-2.22A2.94,2.94,0,0,1,11,7.58a24.63,24.63,0,0,1,3.64-.33c1.31,0,2.62,0,3.92.07a20.3,20.3,0,0,1,2.8.4,2.47,2.47,0,0,1,1.82,1.56c.34.79.65,1.58,1,2.38a.26.26,0,0,0,.27.18h1.17a1.16,1.16,0,1,1,.19,2.31h-.62c.08.21.14.38.21.55A7.77,7.77,0,0,1,26,17.84c0,1.52,0,3,0,4.56a1.51,1.51,0,0,1-.83,1.43,1.54,1.54,0,0,1-2.24-1.23c0-.28,0-.56,0-.87A57.52,57.52,0,0,1,8.92,21.73Zm-.11-3.49A1.31,1.31,0,0,0,10.13,17,1.32,1.32,0,0,0,7.5,17,1.31,1.31,0,0,0,8.81,18.24Zm14.21,0A1.31,1.31,0,0,0,24.34,17,1.32,1.32,0,1,0,23,18.24Z"/><path class="cls-1" d="M26.27,7.38a1.62,1.62,0,0,1-1.65-1.63,1.66,1.66,0,0,1,3.31.06A1.63,1.63,0,0,1,26.27,7.38Z"/><path class="cls-1" d="M15.91,3.36a1.63,1.63,0,0,1-1.65-1.63,1.66,1.66,0,0,1,3.32.06A1.64,1.64,0,0,1,15.91,3.36Z"/><path class="cls-1" d="M5.67,7.38A1.62,1.62,0,0,1,4,5.75a1.66,1.66,0,0,1,3.31.06A1.63,1.63,0,0,1,5.67,7.38Z"/></g><g id="Layer_2-2" data-name="Layer 2"><path class="cls-2" d="M22.42,13.57h-13A.5.5,0,0,1,8.89,13l.53-2.45A2.52,2.52,0,0,1,11.94,8.7h8a2.5,2.5,0,0,1,2.51,1.85L23,13A.5.5,0,0,1,22.42,13.57Z"/><path class="cls-1" d="M11.87.35a.43.43,0,0,1,.57.15c1,1.49,2.24,3.15,3.47,3.12,1.43,0,3-2.49,3.61-3.43a.45.45,0,0,1,.61-.12l1,.67a.4.4,0,0,1,.06.64L17.74,4.79a.42.42,0,0,0-.12.27l-.11,1.63a.44.44,0,0,1-.44.39H14.76a.43.43,0,0,1-.44-.38l-.14-1.64a.35.35,0,0,0-.13-.26L10.62,1.61a.41.41,0,0,1,.1-.67Z"/><path class="cls-1" d="M.53,4.14a.46.46,0,0,1,.7-.07c1,1,3,3.62,4.16,3.62a2.2,2.2,0,0,0,1.38-.4.45.45,0,0,1,.59.15l1,1.6a.4.4,0,0,1,0,.37l-.94,2.27a0,0,0,0,1-.07,0L4,8.13l-.07-.06L.18,5.44a.41.41,0,0,1-.12-.55Z"/><path class="cls-1" d="M31.5,4.33a.45.45,0,0,0-.69-.09c-1,1-3.28,3.39-4.28,3.48a1.64,1.64,0,0,1-1.37-.44.44.44,0,0,0-.59.13L23.5,9a.41.41,0,0,0,0,.37l.86,2.3a0,0,0,0,0,.07,0L27.9,8.2l.07,0,3.84-2.51a.41.41,0,0,0,.13-.55Z"/></g></g></svg>