<svg xmlns="http://www.w3.org/2000/svg" viewBox="0 0 19 24"><defs><style>.cls-1{fill:#607d8b;}</style></defs><g id="Layer_2" data-name="Layer 2"><g id="Layer_2-2" data-name="Layer 2"><g id="directions-bus"><path class="cls-1" d="M0,17.68a3.72,3.72,0,0,0,1.19,2.78v2.28A1.16,1.16,0,0,0,2.38,24H3.56a1.16,1.16,0,0,0,1.19-1.26V21.47h9.5v1.27A1.16,1.16,0,0,0,15.44,24h1.18a1.16,1.16,0,0,0,1.19-1.26V20.46A3.72,3.72,0,0,0,19,17.68V5.05c0-4.42-4.27-5-9.5-5S0,.63,0,5.05ZM4.16,19a1.9,1.9,0,0,1,0-3.79,1.9,1.9,0,0,1,0,3.79Zm10.68,0a1.9,1.9,0,0,1,0-3.79,1.9,1.9,0,0,1,0,3.79Zm1.78-7.58H2.38V5.05H16.62Z"/></g></g></g></svg>