<svg xmlns="http://www.w3.org/2000/svg" viewBox="0 0 30 24"><defs><style>.cls-1{fill:#5f7d8b;}.cls-2{fill:#fff;}</style></defs><g id="Layer_2" data-name="Layer 2"><g id="Layer_1-2" data-name="Layer 1"><path class="cls-1" d="M5.41,20.74v1.13A2.1,2.1,0,0,1,3.35,24a2.06,2.06,0,0,1-2.13-2q0-3.06,0-6.12c0-.8,0-1.61.1-2.41a10.81,10.81,0,0,1,.88-3.09c.05-.13.09-.27.15-.41a7.4,7.4,0,0,1-1-.07A1.64,1.64,0,0,1,0,8.06,1.68,1.68,0,0,1,1.7,6.57c.56,0,1.12,0,1.67,0a.33.33,0,0,0,.36-.25c.4-1.07.81-2.12,1.21-3.18A4,4,0,0,1,8.25.48a31.11,31.11,0,0,1,5-.47C15,0,16.83,0,18.62.1a26.56,26.56,0,0,1,3.84.57A3.42,3.42,0,0,1,25,2.91c.47,1.13.9,2.27,1.33,3.41.07.19.16.26.35.25.54,0,1.08,0,1.62,0a1.65,1.65,0,0,1,.25,3.3c-.26,0-.52,0-.84,0,.1.29.19.54.29.78a11.81,11.81,0,0,1,.85,4.51c0,2.18,0,4.36,0,6.53a2.15,2.15,0,0,1-1.13,2.05A2.1,2.1,0,0,1,24.6,22c0-.39,0-.79,0-1.24A75.61,75.61,0,0,1,5.41,20.74ZM6.65,9.19c.08-.18.13-.35.21-.5A1.79,1.79,0,0,1,8.23,7.55a14.54,14.54,0,0,1,1.48,0,2,2,0,0,1,2,1.66,3.73,3.73,0,0,1,.09.46.24.24,0,0,0,.27.23c.17,0,.22-.08.24-.22s.07-.5.11-.75a2,2,0,0,1,1.49-1.72,8.25,8.25,0,0,1,1.79,0,2,2,0,0,1,1.83,1.75q.07.36.12.72c0,.16.06.28.26.26s.24-.12.27-.28A3.1,3.1,0,0,1,18.33,9a1.94,1.94,0,0,1,1.49-1.4,11.71,11.71,0,0,1,1.45,0A1.87,1.87,0,0,1,23,8.4c.14.25.25.52.38.78l.8-.13c.5-.1.62-.33.45-.81q-.8-2.32-1.6-4.65a1.12,1.12,0,0,0-.95-.83A47.79,47.79,0,0,0,16,2.25a52.59,52.59,0,0,0-7.73.45A1.39,1.39,0,0,0,6.9,3.81a9.44,9.44,0,0,1-.35,1C6.16,6,5.75,7.13,5.36,8.28c-.15.43,0,.65.41.75Zm-1.4,6.4A1.66,1.66,0,0,0,6.91,14a1.7,1.7,0,0,0-1.65-1.66A1.69,1.69,0,0,0,3.61,14,1.66,1.66,0,0,0,5.25,15.59Zm19.49,0a1.65,1.65,0,0,0,0-3.3A1.69,1.69,0,0,0,23.09,14,1.67,1.67,0,0,0,24.74,15.59Z"/><path class="cls-2" d="M6.65,9.19,5.77,9c-.44-.1-.56-.32-.41-.75.39-1.15.8-2.3,1.19-3.45a9.44,9.44,0,0,0,.35-1A1.39,1.39,0,0,1,8.25,2.7,52.59,52.59,0,0,1,16,2.25a47.79,47.79,0,0,1,6.09.51,1.12,1.12,0,0,1,.95.83q.81,2.32,1.6,4.65c.17.48.05.71-.45.81l-.8.13c-.13-.26-.24-.53-.38-.78a1.87,1.87,0,0,0-1.72-.9,11.71,11.71,0,0,0-1.45,0A1.94,1.94,0,0,0,18.33,9a3.1,3.1,0,0,0-.13.62c0,.16-.08.27-.27.28s-.24-.1-.26-.26-.07-.48-.12-.72a2,2,0,0,0-1.83-1.75,8.25,8.25,0,0,0-1.79,0,2,2,0,0,0-1.49,1.72c0,.25-.08.5-.11.75s-.07.23-.24.22a.24.24,0,0,1-.27-.23,3.73,3.73,0,0,0-.09-.46,2,2,0,0,0-2-1.66,14.54,14.54,0,0,0-1.48,0A1.79,1.79,0,0,0,6.86,8.69C6.78,8.84,6.73,9,6.65,9.19Zm14.15-2a1.9,1.9,0,0,0,0-3.79A1.93,1.93,0,0,0,18.9,5.23,1.89,1.89,0,0,0,20.8,7.14ZM16.88,4.82a1.88,1.88,0,0,0-3.75,0,1.85,1.85,0,0,0,1.92,1.89A1.87,1.87,0,0,0,16.88,4.82ZM9.2,7.14a1.89,1.89,0,0,0,1.9-1.87A1.89,1.89,0,1,0,9.2,7.14Z"/><path class="cls-2" d="M5.25,15.59A1.66,1.66,0,0,1,3.61,14a1.69,1.69,0,0,1,1.65-1.68A1.7,1.7,0,0,1,6.91,14,1.66,1.66,0,0,1,5.25,15.59Z"/><path class="cls-2" d="M24.74,15.59A1.67,1.67,0,0,1,23.09,14a1.65,1.65,0,1,1,3.3,0A1.67,1.67,0,0,1,24.74,15.59Z"/><path class="cls-1" d="M20.8,7.14a1.89,1.89,0,0,1-1.9-1.91,1.93,1.93,0,0,1,1.91-1.88,1.9,1.9,0,0,1,0,3.79Z"/><path class="cls-1" d="M16.88,4.82a1.87,1.87,0,0,1-1.83,1.9,1.85,1.85,0,0,1-1.92-1.89,1.88,1.88,0,0,1,3.75,0Z"/><path class="cls-1" d="M9.2,7.14a1.89,1.89,0,1,1,1.9-1.87A1.89,1.89,0,0,1,9.2,7.14Z"/></g></g></svg>